<svg id="Layer_1" data-name="Layer 1" xmlns="http://www.w3.org/2000/svg" xmlns:xlink="http://www.w3.org/1999/xlink" viewBox="0 0 15.37 7.01"><defs><style>.cls-1,.cls-2{fill-rule:evenodd;}.cls-1{fill:url(#linear-gradient);}.cls-2{fill:#002d2c;}</style><linearGradient id="linear-gradient" x1="0.57" y1="7.24" x2="15.94" y2="7.24" gradientUnits="userSpaceOnUse"><stop offset="0" stop-color="#2ff1ff"/><stop offset="1" stop-color="#00939d"/></linearGradient></defs><path class="cls-1" d="M11,10a7.87,7.87,0,0,1-.26-1.38c-3,1.24-6.5,2.13-8.33,1.94S.11,9.23,1,7.81C1.62,6.73,4.61,3.63,6,4c1.06.26.52,1.6.67,2.38.33-.25,1-.92,1.22-1.13,2.33-2.08,3,.53,3.12,2.47A13.71,13.71,0,0,0,15.26,5.4c.36-.35.59-.67.35-1.14l-.09-.18.18.1c.49.39.13,1.07-.18,1.44A12.87,12.87,0,0,1,11,8.43a2,2,0,0,1,0,.24A4.64,4.64,0,0,1,11,10Zm-.38-2.12h0c-.09-.54-.5-3-1.39-2.7s-2.2,2.8-3.12,2c-.44-.4-.34-1.41-.34-1.95a1.14,1.14,0,0,0,0-.26C4.83,5,2.73,7.27,2.23,8c-.16.22-.7,1-.45,1.25.63.59,3.33.12,4.15,0a35.23,35.23,0,0,0,4.65-1.35Zm-4.89-3Zm.8,1.61h0Z" transform="translate(-0.57 -3.53)"/><path class="cls-2" d="M15,4a.21.21,0,0,0,.22-.21.22.22,0,0,0-.44,0A.21.21,0,0,0,15,4Z" transform="translate(-0.57 -3.53)"/></svg>